<svg xmlns="http://www.w3.org/2000/svg" xmlns:xlink="http://www.w3.org/1999/xlink" width="1024" zoomAndPan="magnify" viewBox="0 0 768 767.999994" height="1024" preserveAspectRatio="xMidYMid meet" version="1.2"><defs><clipPath id="20bc8d20c9"><path d="M 260 211 L 684 211 L 684 643 L 260 643 Z M 260 211 "/></clipPath><clipPath id="71202592a5"><path d="M 513.988281 128.363281 L 768 367.277344 L 430.160156 726.464844 L 176.148438 487.550781 Z M 513.988281 128.363281 "/></clipPath><clipPath id="dd45ebaae3"><path d="M 640.992188 247.820312 C 570.851562 181.847656 438.394531 208.730469 345.148438 307.871094 C 251.902344 407.011719 233.171875 540.859375 303.316406 606.835938 C 373.457031 672.808594 505.910156 645.925781 599.160156 546.785156 C 692.40625 447.648438 711.136719 313.796875 640.992188 247.820312 Z M 640.992188 247.820312 "/></clipPath><clipPath id="df33918dd4"><path d="M 97.722656 60.800781 L 528.738281 60.800781 L 528.738281 491.816406 L 97.722656 491.816406 Z M 97.722656 60.800781 "/></clipPath><clipPath id="96eb4f3c9f"><path d="M 313.230469 60.800781 C 194.210938 60.800781 97.722656 157.285156 97.722656 276.308594 C 97.722656 395.328125 194.210938 491.816406 313.230469 491.816406 C 432.253906 491.816406 528.738281 395.328125 528.738281 276.308594 C 528.738281 157.285156 432.253906 60.800781 313.230469 60.800781 Z M 313.230469 60.800781 "/></clipPath><clipPath id="73511155bd"><path d="M 81 333 L 373 333 L 373 584 L 81 584 Z M 81 333 "/></clipPath><clipPath id="4be0b809bd"><path d="M 147.257812 284.160156 L 417.046875 432.140625 L 306.601562 633.5 L 36.808594 485.519531 Z M 147.257812 284.160156 "/></clipPath><clipPath id="c9082c44c9"><path d="M 281.929688 358.027344 C 207.550781 317.230469 122.53125 329.238281 92.03125 384.839844 C 61.535156 440.445312 97.105469 518.59375 171.480469 559.386719 C 245.859375 600.183594 330.878906 588.179688 361.378906 532.574219 C 391.875 476.972656 356.304688 398.824219 281.929688 358.027344 Z M 281.929688 358.027344 "/></clipPath></defs><g id="cb1bcde676"><g clip-rule="nonzero" clip-path="url(#20bc8d20c9)"><g clip-rule="nonzero" clip-path="url(#71202592a5)"><g clip-rule="nonzero" clip-path="url(#dd45ebaae3)"><path style=" stroke:none;fill-rule:nonzero;fill:#f9d030;fill-opacity:1;" d="M 513.988281 128.363281 L 768 367.277344 L 430.160156 726.464844 L 176.148438 487.550781 Z M 513.988281 128.363281 "/></g></g></g><g clip-rule="nonzero" clip-path="url(#df33918dd4)"><g clip-rule="nonzero" clip-path="url(#96eb4f3c9f)"><path style=" stroke:none;fill-rule:nonzero;fill:#f62aa0;fill-opacity:1;" d="M 97.722656 60.800781 L 528.738281 60.800781 L 528.738281 491.816406 L 97.722656 491.816406 Z M 97.722656 60.800781 "/></g></g><g clip-rule="nonzero" clip-path="url(#73511155bd)"><g clip-rule="nonzero" clip-path="url(#4be0b809bd)"><g clip-rule="nonzero" clip-path="url(#c9082c44c9)"><path style=" stroke:none;fill-rule:nonzero;fill:#b8ee30;fill-opacity:1;" d="M 147.257812 284.160156 L 416.261719 431.710938 L 305.816406 633.070312 L 36.808594 485.519531 Z M 147.257812 284.160156 "/></g></g></g><g style="fill:#000000;fill-opacity:1;"><g transform="translate(138.046871, 359.707706)"><path style="stroke:none" d="M 5.765625 0 L 5.765625 -49.25 L 22.75 -49.25 L 22.75 -44.0625 L 22.9375 -44.0625 C 27.351562 -48.476562 32.0625 -50.6875 37.0625 -50.6875 C 40.644531 -50.6875 44.003906 -49.945312 47.140625 -48.46875 C 50.273438 -47 52.640625 -44.726562 54.234375 -41.65625 C 59.234375 -47.675781 64.675781 -50.6875 70.5625 -50.6875 C 75.8125 -50.6875 80.320312 -49.210938 84.09375 -46.265625 C 87.875 -43.328125 89.765625 -38.722656 89.765625 -32.453125 L 89.765625 0 L 72.765625 0 L 72.765625 -27.84375 C 72.765625 -30.46875 72.046875 -32.660156 70.609375 -34.421875 C 69.171875 -36.179688 67.007812 -37.0625 64.125 -37.0625 C 61.632812 -37.0625 59.734375 -36.304688 58.421875 -34.796875 C 57.109375 -33.296875 56.382812 -31.488281 56.25 -29.375 L 56.25 0 L 39.265625 0 L 39.265625 -27.84375 C 39.265625 -30.46875 38.539062 -32.660156 37.09375 -34.421875 C 35.65625 -36.179688 33.5 -37.0625 30.625 -37.0625 C 28 -37.0625 26.03125 -36.242188 24.71875 -34.609375 C 23.40625 -32.972656 22.75 -31.035156 22.75 -28.796875 L 22.75 0 Z M 5.765625 0 "/></g></g><g style="fill:#000000;fill-opacity:1;"><g transform="translate(232.606879, 359.707706)"><path style="stroke:none" d="M 55.578125 -22.265625 L 19.875 -22.265625 C 19.875 -18.816406 20.992188 -16.257812 23.234375 -14.59375 C 25.472656 -12.925781 27.90625 -12.09375 30.53125 -12.09375 C 33.28125 -12.09375 35.453125 -12.457031 37.046875 -13.1875 C 38.648438 -13.925781 40.476562 -15.382812 42.53125 -17.5625 L 54.8125 -11.421875 C 49.695312 -2.847656 41.1875 1.4375 29.28125 1.4375 C 21.851562 1.4375 15.484375 -1.101562 10.171875 -6.1875 C 4.859375 -11.28125 2.203125 -17.410156 2.203125 -24.578125 C 2.203125 -31.742188 4.859375 -37.882812 10.171875 -43 C 15.484375 -48.125 21.851562 -50.6875 29.28125 -50.6875 C 37.082031 -50.6875 43.429688 -48.429688 48.328125 -43.921875 C 53.234375 -39.410156 55.6875 -32.960938 55.6875 -24.578125 C 55.6875 -23.421875 55.648438 -22.648438 55.578125 -22.265625 Z M 20.359375 -31.6875 L 39.078125 -31.6875 C 38.691406 -34.238281 37.679688 -36.203125 36.046875 -37.578125 C 34.410156 -38.953125 32.316406 -39.640625 29.765625 -39.640625 C 26.941406 -39.640625 24.695312 -38.90625 23.03125 -37.4375 C 21.375 -35.96875 20.484375 -34.050781 20.359375 -31.6875 Z M 20.359375 -31.6875 "/></g><g transform="translate(290.494876, 359.707706)"><path style="stroke:none" d="M 9.109375 -6.09375 C 4.503906 -11.113281 2.203125 -17.269531 2.203125 -24.5625 C 2.203125 -31.863281 4.503906 -38.039062 9.109375 -43.09375 C 13.722656 -48.15625 19.582031 -50.6875 26.6875 -50.6875 C 33.21875 -50.6875 38.59375 -48.640625 42.8125 -44.546875 L 42.8125 -82.5625 L 59.8125 -82.5625 L 59.8125 0 L 43.015625 0 L 43.015625 -5.5625 L 42.8125 -5.5625 C 38.59375 -0.894531 33.21875 1.4375 26.6875 1.4375 C 19.582031 1.4375 13.722656 -1.070312 9.109375 -6.09375 Z M 23.5625 -32.921875 C 21.351562 -30.742188 20.25 -27.957031 20.25 -24.5625 C 20.25 -21.175781 21.304688 -18.410156 23.421875 -16.265625 C 25.535156 -14.128906 28.320312 -13.0625 31.78125 -13.0625 C 35.101562 -13.0625 37.835938 -14.144531 39.984375 -16.3125 C 42.128906 -18.488281 43.203125 -21.242188 43.203125 -24.578125 C 43.203125 -27.960938 42.097656 -30.742188 39.890625 -32.921875 C 37.679688 -35.097656 34.976562 -36.1875 31.78125 -36.1875 C 28.507812 -36.1875 25.769531 -35.097656 23.5625 -32.921875 Z M 23.5625 -32.921875 "/></g></g><g style="fill:#000000;fill-opacity:1;"><g transform="translate(355.486893, 359.707706)"><path style="stroke:none" d="M 18.234375 -49.25 L 30.234375 -22.46875 L 42.234375 -49.25 L 62.40625 -49.25 L 36 0 L 24.484375 0 L -1.921875 -49.25 Z M 18.234375 -49.25 "/></g></g><g style="fill:#000000;fill-opacity:1;"><g transform="translate(415.966901, 359.707706)"><path style="stroke:none" d="M 8.640625 -63.75 L 28.125 -80.640625 L 36.859375 -69.59375 L 14.015625 -56.359375 Z M 5.765625 -49.25 L 5.765625 0 L 22.75 0 L 22.75 -49.25 Z M 5.765625 -49.25 "/></g></g><g style="fill:#000000;fill-opacity:1;"><g transform="translate(444.478893, 359.707706)"><path style="stroke:none" d="M 9.109375 -6.09375 C 4.503906 -11.113281 2.203125 -17.269531 2.203125 -24.5625 C 2.203125 -31.863281 4.503906 -38.039062 9.109375 -43.09375 C 13.722656 -48.15625 19.582031 -50.6875 26.6875 -50.6875 C 33.21875 -50.6875 38.59375 -48.640625 42.8125 -44.546875 L 42.8125 -82.5625 L 59.8125 -82.5625 L 59.8125 0 L 43.015625 0 L 43.015625 -5.5625 L 42.8125 -5.5625 C 38.59375 -0.894531 33.21875 1.4375 26.6875 1.4375 C 19.582031 1.4375 13.722656 -1.070312 9.109375 -6.09375 Z M 23.5625 -32.921875 C 21.351562 -30.742188 20.25 -27.957031 20.25 -24.5625 C 20.25 -21.175781 21.304688 -18.410156 23.421875 -16.265625 C 25.535156 -14.128906 28.320312 -13.0625 31.78125 -13.0625 C 35.101562 -13.0625 37.835938 -14.144531 39.984375 -16.3125 C 42.128906 -18.488281 43.203125 -21.242188 43.203125 -24.578125 C 43.203125 -27.960938 42.097656 -30.742188 39.890625 -32.921875 C 37.679688 -35.097656 34.976562 -36.1875 31.78125 -36.1875 C 28.507812 -36.1875 25.769531 -35.097656 23.5625 -32.921875 Z M 23.5625 -32.921875 "/></g></g><g style="fill:#000000;fill-opacity:1;"><g transform="translate(510.046898, 359.707706)"><path style="stroke:none" d="M 55.578125 -22.265625 L 19.875 -22.265625 C 19.875 -18.816406 20.992188 -16.257812 23.234375 -14.59375 C 25.472656 -12.925781 27.90625 -12.09375 30.53125 -12.09375 C 33.28125 -12.09375 35.453125 -12.457031 37.046875 -13.1875 C 38.648438 -13.925781 40.476562 -15.382812 42.53125 -17.5625 L 54.8125 -11.421875 C 49.695312 -2.847656 41.1875 1.4375 29.28125 1.4375 C 21.851562 1.4375 15.484375 -1.101562 10.171875 -6.1875 C 4.859375 -11.28125 2.203125 -17.410156 2.203125 -24.578125 C 2.203125 -31.742188 4.859375 -37.882812 10.171875 -43 C 15.484375 -48.125 21.851562 -50.6875 29.28125 -50.6875 C 37.082031 -50.6875 43.429688 -48.429688 48.328125 -43.921875 C 53.234375 -39.410156 55.6875 -32.960938 55.6875 -24.578125 C 55.6875 -23.421875 55.648438 -22.648438 55.578125 -22.265625 Z M 20.359375 -31.6875 L 39.078125 -31.6875 C 38.691406 -34.238281 37.679688 -36.203125 36.046875 -37.578125 C 34.410156 -38.953125 32.316406 -39.640625 29.765625 -39.640625 C 26.941406 -39.640625 24.695312 -38.90625 23.03125 -37.4375 C 21.375 -35.96875 20.484375 -34.050781 20.359375 -31.6875 Z M 20.359375 -31.6875 "/></g></g><g style="fill:#000000;fill-opacity:1;"><g transform="translate(567.934911, 359.707706)"><path style="stroke:none" d="M 62.015625 -49.25 L 38.59375 -25.734375 L 64.3125 0 L 42.4375 0 L 22.75 -19.6875 L 22.75 0 L 5.765625 0 L 5.765625 -82.5625 L 22.75 -82.5625 L 22.75 -32.0625 L 39.9375 -49.25 Z M 62.015625 -49.25 "/></g></g><g style="fill:#000000;fill-opacity:1;"><g transform="translate(361.688403, 438.1437)"><path style="stroke:none" d="M 27.078125 -21.640625 C 27.078125 -23.242188 27.035156 -24.503906 26.953125 -25.421875 C 26.878906 -26.335938 26.675781 -27.035156 26.34375 -27.515625 C 26.019531 -28.003906 25.535156 -28.335938 24.890625 -28.515625 C 24.242188 -28.691406 23.359375 -28.835938 22.234375 -28.953125 L 22.234375 -31 L 32.8125 -31 L 32.8125 -13.046875 C 32.8125 -10.828125 32.84375 -9.015625 32.90625 -7.609375 C 32.96875 -6.203125 33.054688 -5.148438 33.171875 -4.453125 C 33.242188 -3.941406 33.367188 -3.539062 33.546875 -3.25 C 33.722656 -2.957031 33.984375 -2.722656 34.328125 -2.546875 C 34.679688 -2.367188 35.140625 -2.25 35.703125 -2.1875 C 36.273438 -2.132812 37.007812 -2.109375 37.90625 -2.109375 L 37.90625 -0.0625 L 28.25 0.640625 L 27.609375 -6.375 L 27.375 -6.375 C 25.894531 -3.957031 24.1875 -2.191406 22.25 -1.078125 C 20.320312 0.0234375 18.304688 0.578125 16.203125 0.578125 C 14.566406 0.578125 12.976562 0.269531 11.4375 -0.34375 C 9.894531 -0.96875 8.734375 -1.804688 7.953125 -2.859375 C 7.296875 -3.722656 6.816406 -4.914062 6.515625 -6.4375 C 6.222656 -7.957031 6.078125 -9.925781 6.078125 -12.34375 L 6.078125 -21.640625 C 6.078125 -23.242188 6.035156 -24.503906 5.953125 -25.421875 C 5.878906 -26.335938 5.675781 -27.035156 5.34375 -27.515625 C 5.019531 -28.003906 4.535156 -28.335938 3.890625 -28.515625 C 3.242188 -28.691406 2.359375 -28.835938 1.234375 -28.953125 L 1.234375 -31 L 11.8125 -31 L 11.8125 -15.03125 C 11.8125 -10.78125 12.304688 -7.695312 13.296875 -5.78125 C 14.296875 -3.875 15.890625 -2.921875 18.078125 -2.921875 C 21.503906 -2.921875 24.175781 -5.164062 26.09375 -9.65625 C 26.289062 -10.125 26.445312 -10.550781 26.5625 -10.9375 C 26.675781 -11.332031 26.769531 -11.757812 26.84375 -12.21875 C 26.925781 -12.6875 26.984375 -13.210938 27.015625 -13.796875 C 27.054688 -14.390625 27.078125 -15.09375 27.078125 -15.90625 Z M 27.078125 -21.640625 "/></g></g><g style="fill:#000000;fill-opacity:1;"><g transform="translate(290.414168, 519.942702)"><path style="stroke:none" d="M 12.21875 -9.125 C 12.21875 -7.644531 12.273438 -6.457031 12.390625 -5.5625 C 12.515625 -4.664062 12.757812 -3.960938 13.125 -3.453125 C 13.5 -2.941406 14.023438 -2.585938 14.703125 -2.390625 C 15.390625 -2.203125 16.300781 -2.085938 17.4375 -2.046875 L 17.4375 0 L 1.28125 0 L 1.28125 -2.046875 C 2.457031 -2.085938 3.394531 -2.210938 4.09375 -2.421875 C 4.789062 -2.640625 5.34375 -2.984375 5.75 -3.453125 C 6.164062 -3.921875 6.441406 -4.570312 6.578125 -5.40625 C 6.710938 -6.25 6.78125 -7.351562 6.78125 -8.71875 L 6.78125 -33.9375 C 6.78125 -36.039062 6.75 -37.800781 6.6875 -39.21875 C 6.632812 -40.644531 6.550781 -41.613281 6.4375 -42.125 C 6.238281 -43.019531 5.78125 -43.625 5.0625 -43.9375 C 4.34375 -44.25 3.046875 -44.40625 1.171875 -44.40625 L 1.171875 -46.390625 L 12.21875 -48.5625 Z M 12.21875 -9.125 "/></g></g><g style="fill:#000000;fill-opacity:1;"><g transform="translate(309.424441, 519.942702)"><path style="stroke:none" d="M 30.53125 -5.4375 C 27.21875 -1.425781 23.101562 0.578125 18.1875 0.578125 C 15.882812 0.578125 13.796875 0.195312 11.921875 -0.5625 C 10.054688 -1.320312 8.453125 -2.390625 7.109375 -3.765625 C 5.765625 -5.148438 4.71875 -6.804688 3.96875 -8.734375 C 3.226562 -10.671875 2.859375 -12.8125 2.859375 -15.15625 C 2.859375 -17.53125 3.25 -19.726562 4.03125 -21.75 C 4.8125 -23.78125 5.914062 -25.519531 7.34375 -26.96875 C 8.769531 -28.414062 10.46875 -29.546875 12.4375 -30.359375 C 14.40625 -31.179688 16.554688 -31.59375 18.890625 -31.59375 C 22.671875 -31.59375 25.59375 -30.566406 27.65625 -28.515625 C 29.726562 -26.472656 30.765625 -23.539062 30.765625 -19.71875 C 30.765625 -19.164062 30.65625 -18.832031 30.4375 -18.71875 C 30.226562 -18.601562 29.734375 -18.546875 28.953125 -18.546875 L 9.71875 -18.546875 C 9.632812 -18.234375 9.570312 -17.851562 9.53125 -17.40625 C 9.5 -16.957031 9.484375 -16.457031 9.484375 -15.90625 C 9.484375 -13.882812 9.722656 -12.039062 10.203125 -10.375 C 10.691406 -8.71875 11.394531 -7.304688 12.3125 -6.140625 C 13.226562 -4.972656 14.316406 -4.066406 15.578125 -3.421875 C 16.847656 -2.773438 18.265625 -2.453125 19.828125 -2.453125 C 21.460938 -2.453125 22.984375 -2.8125 24.390625 -3.53125 C 25.796875 -4.257812 27.238281 -5.441406 28.71875 -7.078125 Z M 20.890625 -21.234375 C 21.660156 -21.234375 22.28125 -21.253906 22.75 -21.296875 C 23.21875 -21.335938 23.566406 -21.414062 23.796875 -21.53125 C 24.035156 -21.644531 24.191406 -21.804688 24.265625 -22.015625 C 24.347656 -22.234375 24.390625 -22.519531 24.390625 -22.875 C 24.390625 -24.664062 23.8125 -26.097656 22.65625 -27.171875 C 21.507812 -28.242188 19.941406 -28.78125 17.953125 -28.78125 C 13.742188 -28.78125 11.132812 -26.265625 10.125 -21.234375 Z M 14.046875 -38.078125 L 21.640625 -45.046875 C 23.046875 -46.328125 24.351562 -46.96875 25.5625 -46.96875 C 26.226562 -46.96875 26.765625 -46.789062 27.171875 -46.4375 C 27.578125 -46.09375 27.78125 -45.585938 27.78125 -44.921875 C 27.78125 -44.296875 27.515625 -43.738281 26.984375 -43.25 C 26.460938 -42.769531 25.734375 -42.316406 24.796875 -41.890625 L 16.796875 -38.078125 Z M 14.046875 -38.078125 "/></g></g><g style="fill:#000000;fill-opacity:1;"><g transform="translate(342.941015, 519.942702)"><path style="stroke:none" d="M 20.359375 -2.046875 C 21.640625 -2.046875 22.523438 -2.101562 23.015625 -2.21875 C 23.503906 -2.34375 23.75 -2.5 23.75 -2.6875 C 23.707031 -3 23.394531 -3.5625 22.8125 -4.375 C 22.226562 -5.195312 21.46875 -6.175781 20.53125 -7.3125 L 14.328125 -14.796875 L 12.171875 -12.75 L 12.171875 -9.296875 C 12.171875 -7.773438 12.238281 -6.554688 12.375 -5.640625 C 12.507812 -4.722656 12.757812 -4 13.125 -3.46875 C 13.5 -2.945312 14.046875 -2.585938 14.765625 -2.390625 C 15.492188 -2.203125 16.441406 -2.085938 17.609375 -2.046875 L 17.609375 0 L 1 0 L 1 -2.046875 C 2.164062 -2.085938 3.109375 -2.203125 3.828125 -2.390625 C 4.546875 -2.585938 5.109375 -2.941406 5.515625 -3.453125 C 5.929688 -3.960938 6.21875 -4.644531 6.375 -5.5 C 6.53125 -6.351562 6.609375 -7.484375 6.609375 -8.890625 L 6.609375 -33.40625 C 6.609375 -36.363281 6.578125 -38.601562 6.515625 -40.125 C 6.460938 -41.644531 6.257812 -42.679688 5.90625 -43.234375 C 5.550781 -43.773438 4.960938 -44.09375 4.140625 -44.1875 C 3.328125 -44.289062 2.238281 -44.34375 0.875 -44.34375 L 0.875 -46.328125 L 12.171875 -48.5625 L 12.171875 -16.4375 L 17.609375 -21.765625 C 19.359375 -23.515625 20.660156 -24.804688 21.515625 -25.640625 C 22.378906 -26.484375 22.8125 -27.117188 22.8125 -27.546875 C 22.8125 -27.984375 22.398438 -28.328125 21.578125 -28.578125 C 20.765625 -28.828125 19.597656 -28.953125 18.078125 -28.953125 L 18.078125 -31 L 33.28125 -31 L 33.28125 -28.953125 C 32.539062 -28.953125 31.894531 -28.910156 31.34375 -28.828125 C 30.800781 -28.753906 30.285156 -28.597656 29.796875 -28.359375 C 29.316406 -28.128906 28.800781 -27.8125 28.25 -27.40625 C 27.707031 -27 27.085938 -26.484375 26.390625 -25.859375 L 17.953125 -18.375 L 29.546875 -5.265625 C 30.085938 -4.597656 30.582031 -4.0625 31.03125 -3.65625 C 31.476562 -3.25 31.925781 -2.925781 32.375 -2.6875 C 32.820312 -2.457031 33.304688 -2.289062 33.828125 -2.1875 C 34.359375 -2.09375 35 -2.046875 35.75 -2.046875 L 35.75 0 L 20.359375 0 Z M 20.359375 -2.046875 "/></g><g transform="translate(378.97279, 519.942702)"><path style="stroke:none" d="M 20.421875 -17.3125 C 18.191406 -16.457031 16.304688 -15.617188 14.765625 -14.796875 C 13.222656 -13.984375 11.984375 -13.164062 11.046875 -12.34375 C 10.117188 -11.519531 9.445312 -10.695312 9.03125 -9.875 C 8.625 -9.0625 8.421875 -8.226562 8.421875 -7.375 C 8.421875 -6.082031 8.847656 -5.023438 9.703125 -4.203125 C 10.566406 -3.390625 11.703125 -2.984375 13.109375 -2.984375 C 14.117188 -2.984375 15.0625 -3.234375 15.9375 -3.734375 C 16.8125 -4.242188 17.582031 -4.9375 18.25 -5.8125 C 18.914062 -6.695312 19.441406 -7.734375 19.828125 -8.921875 C 20.222656 -10.109375 20.421875 -11.363281 20.421875 -12.6875 Z M 20.421875 -19.828125 L 20.421875 -22.234375 C 20.421875 -26.984375 18.390625 -29.359375 14.328125 -29.359375 C 13.671875 -29.359375 13.109375 -29.300781 12.640625 -29.1875 C 12.171875 -29.070312 11.78125 -28.878906 11.46875 -28.609375 C 11.15625 -28.335938 10.867188 -27.945312 10.609375 -27.4375 C 10.359375 -26.925781 10.117188 -26.300781 9.890625 -25.5625 C 9.460938 -24.4375 9.039062 -23.6875 8.625 -23.3125 C 8.21875 -22.9375 7.625 -22.75 6.84375 -22.75 C 4.894531 -22.75 3.921875 -23.726562 3.921875 -25.6875 C 3.921875 -27.550781 4.914062 -29 6.90625 -30.03125 C 8.894531 -31.070312 11.722656 -31.59375 15.390625 -31.59375 C 19.285156 -31.59375 22.050781 -30.898438 23.6875 -29.515625 C 25.332031 -28.128906 26.15625 -25.78125 26.15625 -22.46875 L 26.15625 -9.359375 C 26.15625 -4.910156 27.03125 -2.6875 28.78125 -2.6875 C 29.320312 -2.6875 29.847656 -2.753906 30.359375 -2.890625 C 30.867188 -3.023438 31.300781 -3.390625 31.65625 -3.984375 L 32.46875 -2.578125 C 32 -1.679688 31.140625 -0.929688 29.890625 -0.328125 C 28.640625 0.273438 27.332031 0.578125 25.96875 0.578125 C 24.257812 0.578125 22.984375 0.0351562 22.140625 -1.046875 C 21.304688 -2.140625 20.890625 -3.679688 20.890625 -5.671875 L 20.59375 -5.671875 C 19.582031 -3.765625 18.175781 -2.253906 16.375 -1.140625 C 14.582031 -0.0234375 12.59375 0.53125 10.40625 0.53125 C 7.957031 0.53125 6.03125 -0.09375 4.625 -1.34375 C 3.21875 -2.59375 2.515625 -4.269531 2.515625 -6.375 C 2.515625 -7.3125 2.679688 -8.207031 3.015625 -9.0625 C 3.347656 -9.925781 3.882812 -10.742188 4.625 -11.515625 C 5.363281 -12.296875 6.335938 -13.066406 7.546875 -13.828125 C 8.753906 -14.585938 10.238281 -15.359375 12 -16.140625 Z M 20.421875 -19.828125 "/></g></g><g style="fill:#000000;fill-opacity:1;"><g transform="translate(411.378002, 519.942702)"><path style="stroke:none" d="M 12.984375 -9.296875 C 12.984375 -7.703125 13.019531 -6.4375 13.09375 -5.5 C 13.175781 -4.5625 13.382812 -3.847656 13.71875 -3.359375 C 14.050781 -2.867188 14.53125 -2.546875 15.15625 -2.390625 C 15.78125 -2.242188 16.65625 -2.128906 17.78125 -2.046875 L 17.78125 0 L 2.21875 0 L 2.21875 -2.046875 C 3.351562 -2.085938 4.25 -2.191406 4.90625 -2.359375 C 5.570312 -2.535156 6.082031 -2.859375 6.4375 -3.328125 C 6.789062 -3.796875 7.015625 -4.46875 7.109375 -5.34375 C 7.203125 -6.226562 7.25 -7.410156 7.25 -8.890625 L 7.25 -15.734375 C 7.25 -18.390625 7.21875 -20.457031 7.15625 -21.9375 C 7.101562 -23.414062 6.910156 -24.503906 6.578125 -25.203125 C 6.242188 -25.910156 5.726562 -26.332031 5.03125 -26.46875 C 4.332031 -26.601562 3.359375 -26.671875 2.109375 -26.671875 L 2.109375 -28.71875 L 12.34375 -30.953125 L 13.15625 -23.6875 L 13.390625 -23.6875 C 13.898438 -24.863281 14.535156 -25.9375 15.296875 -26.90625 C 16.054688 -27.882812 16.882812 -28.710938 17.78125 -29.390625 C 18.675781 -30.078125 19.609375 -30.613281 20.578125 -31 C 21.554688 -31.394531 22.554688 -31.59375 23.578125 -31.59375 C 24.828125 -31.59375 25.8125 -31.289062 26.53125 -30.6875 C 27.25 -30.082031 27.609375 -29.269531 27.609375 -28.25 C 27.609375 -27.3125 27.316406 -26.578125 26.734375 -26.046875 C 26.148438 -25.523438 25.3125 -25.265625 24.21875 -25.265625 C 23.59375 -25.265625 23.066406 -25.34375 22.640625 -25.5 C 22.210938 -25.65625 21.832031 -25.820312 21.5 -26 C 21.164062 -26.175781 20.851562 -26.34375 20.5625 -26.5 C 20.269531 -26.65625 19.945312 -26.734375 19.59375 -26.734375 C 18.539062 -26.734375 17.488281 -26.0625 16.4375 -24.71875 C 15.382812 -23.375 14.566406 -21.664062 13.984375 -19.59375 C 13.671875 -18.46875 13.425781 -17.191406 13.25 -15.765625 C 13.070312 -14.335938 12.984375 -12.847656 12.984375 -11.296875 Z M 13.15625 -38.078125 L 6.203125 -45.625 L 8.828125 -45.625 L 15.796875 -41.65625 L 22.75 -45.625 L 25.390625 -45.625 L 18.421875 -38.078125 Z M 13.15625 -38.078125 "/></g></g><g style="fill:#000000;fill-opacity:1;"><g transform="translate(438.63581, 519.942702)"><path style="stroke:none" d="M 30.53125 -5.4375 C 27.21875 -1.425781 23.101562 0.578125 18.1875 0.578125 C 15.882812 0.578125 13.796875 0.195312 11.921875 -0.5625 C 10.054688 -1.320312 8.453125 -2.390625 7.109375 -3.765625 C 5.765625 -5.148438 4.71875 -6.804688 3.96875 -8.734375 C 3.226562 -10.671875 2.859375 -12.8125 2.859375 -15.15625 C 2.859375 -17.53125 3.25 -19.726562 4.03125 -21.75 C 4.8125 -23.78125 5.914062 -25.519531 7.34375 -26.96875 C 8.769531 -28.414062 10.46875 -29.546875 12.4375 -30.359375 C 14.40625 -31.179688 16.554688 -31.59375 18.890625 -31.59375 C 22.671875 -31.59375 25.59375 -30.566406 27.65625 -28.515625 C 29.726562 -26.472656 30.765625 -23.539062 30.765625 -19.71875 C 30.765625 -19.164062 30.65625 -18.832031 30.4375 -18.71875 C 30.226562 -18.601562 29.734375 -18.546875 28.953125 -18.546875 L 9.71875 -18.546875 C 9.632812 -18.234375 9.570312 -17.851562 9.53125 -17.40625 C 9.5 -16.957031 9.484375 -16.457031 9.484375 -15.90625 C 9.484375 -13.882812 9.722656 -12.039062 10.203125 -10.375 C 10.691406 -8.71875 11.394531 -7.304688 12.3125 -6.140625 C 13.226562 -4.972656 14.316406 -4.066406 15.578125 -3.421875 C 16.847656 -2.773438 18.265625 -2.453125 19.828125 -2.453125 C 21.460938 -2.453125 22.984375 -2.8125 24.390625 -3.53125 C 25.796875 -4.257812 27.238281 -5.441406 28.71875 -7.078125 Z M 20.890625 -21.234375 C 21.660156 -21.234375 22.28125 -21.253906 22.75 -21.296875 C 23.21875 -21.335938 23.566406 -21.414062 23.796875 -21.53125 C 24.035156 -21.644531 24.191406 -21.804688 24.265625 -22.015625 C 24.347656 -22.234375 24.390625 -22.519531 24.390625 -22.875 C 24.390625 -24.664062 23.8125 -26.097656 22.65625 -27.171875 C 21.507812 -28.242188 19.941406 -28.78125 17.953125 -28.78125 C 13.742188 -28.78125 11.132812 -26.265625 10.125 -21.234375 Z M 20.890625 -21.234375 "/></g></g></g></svg>